<?xml version="1.0" encoding="utf-8"?>
<!-- Generator: Adobe Illustrator 24.3.0, SVG Export Plug-In . SVG Version: 6.00 Build 0)  -->
<svg version="1.1" id="Layer_1" xmlns="http://www.w3.org/2000/svg" xmlns:xlink="http://www.w3.org/1999/xlink" x="0px" y="0px"
	 viewBox="0 0 200 200" enable-background="new 0 0 200 200" xml:space="preserve">
<path fill="#282828" d="M100.382,157.898c-20.1,0-36.4-17.1-36.4-38.2c0-24.4,32.7-75.5,33-76c0.4-0.6,1.4-2.2,3.2-2.2h0.4
	c1.7,0,2.6,0.9,3.1,1.7c0.3,0.5,33,52.1,32.9,76.6C136.582,140.798,120.282,157.898,100.382,157.898z M100.482,45.598
	c-0.1,0.1-0.1,0.2-0.2,0.3c-0.3,0.5-32.3,50.9-32.3,73.8c0,18.9,14.5,34.2,32.3,34.2h0.1c17.8,0,32.2-15.3,32.3-34.1
	C132.682,100.598,109.682,59.998,100.482,45.598z"/>
<path fill="#282828" d="M83.282,134.998c-0.7,0-1.5-0.4-1.8-1.1c-2.3-4.9-3.5-10.2-3.5-15.7c0-13.3,10.4-35.2,19.2-51.2
	c0.5-1,1.7-1.3,2.7-0.8s1.3,1.7,0.8,2.7c-12.2,22.3-18.7,39.4-18.7,49.3c0,5,1.1,9.6,3.1,13.9c0.5,1,0.1,2.2-0.9,2.7
	C83.882,134.898,83.582,134.998,83.282,134.998z"/>
</svg>
