<?xml version="1.0" encoding="utf-8"?>
<!-- Generator: Adobe Illustrator 24.3.0, SVG Export Plug-In . SVG Version: 6.00 Build 0)  -->
<svg version="1.1" id="Layer_1" xmlns="http://www.w3.org/2000/svg" xmlns:xlink="http://www.w3.org/1999/xlink" x="0px" y="0px"
	 viewBox="0 0 200 200" enable-background="new 0 0 200 200" xml:space="preserve">
<path fill="#282828" stroke="#282828" stroke-width="5" d="M100.382,157.898c-20.1,0-36.4-17.1-36.4-38.2c0-24.4,32.7-75.5,33-76c0.4-0.6,1.4-2.2,3.2-2.2h0.4
	c1.7,0,2.6,0.9,3.1,1.7c0.3,0.5,33,52.1,32.9,76.6C136.582,140.798,120.282,157.898,100.382,157.898z M100.482,45.598
	c-0.1,0.1-0.1,0.2-0.2,0.3c-0.3,0.5-32.3,50.9-32.3,73.8c0,18.9,14.5,34.2,32.3,34.2h0.1c17.8,0,32.2-15.3,32.3-34.1
	C132.682,100.598,109.682,59.998,100.482,45.598z"/>
</svg>
