<?xml version="1.0" encoding="UTF-8" standalone="no"?>
<svg
   xmlns:dc="http://purl.org/dc/elements/1.1/"
   xmlns:cc="http://creativecommons.org/ns#"
   xmlns:rdf="http://www.w3.org/1999/02/22-rdf-syntax-ns#"
   xmlns:svg="http://www.w3.org/2000/svg"
   xmlns="http://www.w3.org/2000/svg"
   width="100%"
   height="100%"
   viewBox="0 0 64 64"
   version="1.1"
   xml:space="preserve"
   style="fill-rule:evenodd;clip-rule:evenodd;stroke-linecap:round;stroke-linejoin:round;stroke-miterlimit:2;"
   id="svg31">
  <metadata
   id="metadata37">
    <rdf:RDF>
      <cc:Work
   rdf:about="">
        <dc:format>image/svg+xml</dc:format>

        <dc:type
   rdf:resource="http://purl.org/dc/dcmitype/StillImage" />

      </cc:Work>

    </rdf:RDF>

  </metadata>

  <defs
   id="defs35" />

  
  <path
   d="M23.534,30.991c0.982,0 1.854,-0.628 2.165,-1.56c0.795,-2.497 3.142,-4.293 5.904,-4.293c2.763,0 5.109,1.796 5.934,4.283c0.307,0.919 1.167,1.538 2.135,1.538c0.986,0.032 2.002,0.032 2.002,0.032c1.749,0 3.427,0.695 4.664,1.932c1.237,1.237 1.932,2.915 1.932,4.664c0,0.001 0,0.002 0,0.003c0,1.75 -0.695,3.427 -1.932,4.664c-1.237,1.237 -2.915,1.932 -4.664,1.932c-5.835,0 -14.306,0 -20.142,0c-1.749,0 -3.427,-0.695 -4.664,-1.932c-1.237,-1.237 -1.931,-2.914 -1.931,-4.664c0,-0.001 0,-0.002 0,-0.003c0,-1.749 0.694,-3.427 1.931,-4.664c1.237,-1.237 2.915,-1.932 4.664,-1.932l2.002,0Z"
   style="fill:none;stroke:#ffffff;stroke-width:1.5px;"
   id="path3" />

  <path
   d="M11.566,39.798c-0.984,-0.318 -1.889,-0.867 -2.634,-1.612c-1.237,-1.237 -1.932,-2.914 -1.932,-4.664c0,-0.001 0,-0.002 0,-0.003c0,-1.749 0.695,-3.427 1.932,-4.664c1.237,-1.236 2.914,-1.931 4.664,-1.931l3.833,0c0.205,-3.265 2.921,-5.854 6.238,-5.854c2.801,0 5.174,1.847 5.967,4.388"
   style="fill:none;stroke:#ffffff;stroke-width:1.5px;"
   id="path5" />

  <path
   d="M37.309,21.852c0.895,-0.498 1.927,-0.782 3.024,-0.782c2.757,0 5.099,1.789 5.929,4.267c0.313,0.929 1.184,1.554 2.164,1.554c0.978,0.033 1.978,0.033 1.978,0.033c1.75,0 3.427,0.695 4.664,1.931c1.237,1.237 1.932,2.915 1.932,4.664c0,0.001 0,0.002 0,0.003c0,1.75 -0.695,3.427 -1.932,4.664c-1.237,1.237 -2.914,1.932 -4.664,1.932l-2.638,0"
   style="fill:none;stroke:#ffffff;stroke-width:1.5px;"
   id="path7" />

  <path
   d="M38.965,20.838c0,-3.361 2.728,-6.089 6.089,-6.089c3.36,0 6.088,2.728 6.088,6.089c0,0.711 -0.122,1.394 -0.347,2.029"
   style="fill:none;stroke:#ffffff;stroke-width:1.5px;"
   id="path9" />

  <path
   d="M45.054,9.675l0,2.03"
   style="fill:none;stroke:#ffffff;stroke-width:1.5px;"
   id="path11" />

  <path
   d="M52.946,12.945l-1.435,1.435"
   style="fill:none;stroke:#ffffff;stroke-width:1.5px;"
   id="path13" />

  <path
   d="M56.216,20.838l-2.03,0"
   style="fill:none;stroke:#ffffff;stroke-width:1.5px;"
   id="path15" />

  <path
   d="M37.161,12.945l1.435,1.435"
   style="fill:none;stroke:#ffffff;stroke-width:1.5px;"
   id="path17" />

  <path
   d="M10.044,54.325l3.045,-4.059"
   style="fill:none;stroke:#ffffff;stroke-width:1.5px;"
   id="path19" />

  <path
   d="M18.162,54.325l3.045,-4.059"
   style="fill:none;stroke:#ffffff;stroke-width:1.5px;"
   id="path21" />

  <path
   d="M26.28,54.325l3.045,-4.059"
   style="fill:none;stroke:#ffffff;stroke-width:1.5px;"
   id="path23" />

  <path
   d="M34.399,54.325l3.044,-4.059"
   style="fill:none;stroke:#ffffff;stroke-width:1.5px;"
   id="path25" />

  <path
   d="M42.517,54.325l3.044,-4.059"
   style="fill:none;stroke:#ffffff;stroke-width:1.5px;"
   id="path27" />

  <path
   d="M50.635,54.325l3.044,-4.059"
   style="fill:none;stroke:#ffffff;stroke-width:1.5px;"
   id="path29" />

</svg>
